<svg width="28" height="28" viewBox="0 0 28 28" fill="none" xmlns="http://www.w3.org/2000/svg">
<path d="M14.2346 1.00069C10.7617 0.964903 7.41681 2.32873 4.93516 4.79245C2.4535 7.25617 1.03809 10.6181 1 14.1396C1.01338 16.9225 1.89627 19.6296 3.52186 21.8718C5.14745 24.1141 7.43209 25.7764 10.0476 26.6197C10.7094 26.7417 10.95 26.3391 10.95 25.9853V23.7528C7.26837 24.5458 6.48633 21.9961 6.48633 21.9961C6.24124 21.1957 5.72021 20.5115 5.01849 20.0685C3.81536 19.2634 5.11475 19.2756 5.11475 19.2756C5.53061 19.3319 5.92849 19.4831 6.27856 19.7176C6.62862 19.9522 6.92177 20.264 7.13603 20.6298C7.5094 21.2862 8.12204 21.7678 8.84209 21.9708C9.56219 22.1739 10.332 22.0823 10.9861 21.7155C11.0533 21.0474 11.3517 20.425 11.8283 19.9588C8.89262 19.6294 5.81257 18.507 5.81257 13.4686C5.78631 12.1543 6.26524 10.8813 7.14806 9.91853C6.746 8.79017 6.79347 7.54733 7.28041 6.45387C7.28041 6.45387 8.39933 6.10009 10.8899 7.79583C13.0578 7.21005 15.3392 7.21005 17.5071 7.79583C20.0337 6.10009 21.1165 6.45387 21.1165 6.45387C21.6035 7.54733 21.651 8.79017 21.2489 9.91853C22.1522 10.8636 22.6571 12.1281 22.6566 13.4442C22.6566 18.4948 19.5525 19.605 16.6409 19.9344C16.9596 20.2482 17.2059 20.6298 17.362 21.0517C17.518 21.4735 17.5799 21.9253 17.5432 22.3742V25.9731C17.5432 26.4001 17.7838 26.7417 18.4456 26.6075C21.0537 25.7589 23.3306 24.0963 24.9512 21.8572C26.5717 19.6181 27.453 16.9169 27.4691 14.1396C27.431 10.6181 26.0156 7.25617 23.534 4.79245C21.0524 2.32873 17.7075 0.964903 14.2346 1.00069Z" fill="white"/>
</svg>
