<svg width="28" height="28" viewBox="0 0 28 28" fill="none" xmlns="http://www.w3.org/2000/svg">
<path d="M20.1645 1H8.30441C4.27671 1 1 4.2769 1 8.30452V20.1646C1 24.1924 4.27671 27.4691 8.30441 27.4691H20.1645C24.1924 27.4691 27.4691 24.1923 27.4691 20.1646V8.30452C27.4693 4.2769 24.1924 1 20.1645 1ZM25.1208 20.1646C25.1208 22.8974 22.8974 25.1207 20.1646 25.1207H8.30441C5.57172 25.1208 3.34847 22.8974 3.34847 20.1646V8.30452C3.34847 5.57185 5.57172 3.34847 8.30441 3.34847H20.1645C22.8973 3.34847 25.1207 5.57185 25.1207 8.30452V20.1646H25.1208Z" fill="white"/>
<path d="M14.2345 7.41458C10.4736 7.41458 7.41406 10.4742 7.41406 14.235C7.41406 17.9957 10.4736 21.0551 14.2345 21.0551C17.9953 21.0551 21.0549 17.9957 21.0549 14.235C21.0549 10.4742 17.9953 7.41458 14.2345 7.41458ZM14.2345 18.7065C11.7687 18.7065 9.76254 16.7006 9.76254 14.2349C9.76254 11.7689 11.7686 9.7629 14.2345 9.7629C16.7004 9.7629 18.7065 11.7689 18.7065 14.2349C18.7065 16.7006 16.7003 18.7065 14.2345 18.7065Z" fill="white"/>
<path d="M21.3414 5.42322C20.8889 5.42322 20.4444 5.6064 20.1249 5.92736C19.8038 6.24675 19.6191 6.6914 19.6191 7.14543C19.6191 7.59805 19.8039 8.04255 20.1249 8.3635C20.4442 8.68289 20.8889 8.86764 21.3414 8.86764C21.7954 8.86764 22.2385 8.68289 22.5594 8.3635C22.8804 8.04255 23.0636 7.59791 23.0636 7.14543C23.0636 6.6914 22.8804 6.24675 22.5594 5.92736C22.2401 5.6064 21.7954 5.42322 21.3414 5.42322Z" fill="white"/>
</svg>
