<svg width="28" height="28" viewBox="0 0 28 28" fill="none" xmlns="http://www.w3.org/2000/svg">
<path d="M25.0748 1H3.39438C2.072 1 1 2.072 1 3.39435V25.0748C1 26.3971 2.072 27.4691 3.39438 27.4691H25.0748C26.3971 27.4691 27.4691 26.3971 27.4691 25.0748V3.39435C27.4691 2.072 26.3971 1 25.0748 1ZM9.19071 23.8552C9.19071 24.2401 8.8787 24.552 8.49391 24.552H5.52779C5.143 24.552 4.83099 24.2401 4.83099 23.8552V11.4216C4.83099 11.0367 5.143 10.7248 5.52779 10.7248H8.49391C8.8787 10.7248 9.19071 11.0367 9.19071 11.4216V23.8552ZM7.01081 9.55276C5.45467 9.55276 4.19309 8.29114 4.19309 6.73494C4.19309 5.17873 5.45467 3.91715 7.01081 3.91715C8.56703 3.91715 9.82861 5.17873 9.82861 6.73494C9.82861 8.29114 8.56711 9.55276 7.01081 9.55276ZM24.6913 23.9114C24.6913 24.2651 24.4044 24.552 24.0506 24.552H20.8678C20.514 24.552 20.2271 24.2651 20.2271 23.9114V18.0792C20.2271 17.2092 20.4824 14.2668 17.9535 14.2668C15.992 14.2668 15.5941 16.2808 15.5142 17.1846V23.9114C15.5142 24.2651 15.2274 24.552 14.8735 24.552H11.7952C11.4414 24.552 11.1546 24.2651 11.1546 23.9114V11.3655C11.1546 11.0116 11.4414 10.7248 11.7952 10.7248H14.8735C15.2273 10.7248 15.5142 11.0116 15.5142 11.3655V12.4502C16.2415 11.3586 17.3224 10.5162 19.6239 10.5162C24.7204 10.5162 24.6913 15.2775 24.6913 17.8937V23.9114Z" fill="white"/>
</svg>
