<svg width="28" height="28" viewBox="0 0 28 28" fill="none" xmlns="http://www.w3.org/2000/svg">
<path d="M20.5859 16.2096C20.5343 16.1848 18.6046 15.2346 18.2617 15.1112C18.1217 15.061 17.9717 15.0118 17.8122 15.0118C17.5517 15.0118 17.3328 15.1417 17.1623 15.3968C16.9695 15.6833 16.3861 16.3654 16.2057 16.5691C16.1822 16.5961 16.1501 16.6282 16.1308 16.6282C16.1135 16.6282 15.8149 16.5052 15.7245 16.466C13.6544 15.5668 12.0832 13.4045 11.8678 13.0398C11.837 12.9874 11.8358 12.9636 11.8355 12.9636C11.843 12.9358 11.9127 12.8661 11.9486 12.83C12.0536 12.7261 12.1675 12.589 12.2777 12.4564C12.3299 12.3935 12.3821 12.3307 12.4335 12.2714C12.5933 12.0854 12.6644 11.941 12.747 11.7738L12.7901 11.6869C12.9916 11.2867 12.8196 10.9489 12.7639 10.8399C12.7183 10.7487 11.9035 8.78217 11.8169 8.57557C11.6086 8.07704 11.3333 7.84492 10.9508 7.84492C10.9153 7.84492 10.9508 7.84492 10.802 7.85119C10.6207 7.85885 9.63369 7.98878 9.19728 8.26387C8.73457 8.55564 7.95166 9.48566 7.95166 11.1213C7.95166 12.5933 8.88577 13.9832 9.28686 14.5118C9.29687 14.5251 9.31515 14.5522 9.3417 14.5911C10.8777 16.8342 12.7925 18.4966 14.7335 19.272C16.6024 20.0185 17.4872 20.1048 17.9903 20.1048C17.9904 20.1048 17.9904 20.1048 17.9904 20.1048C18.2018 20.1048 18.371 20.0882 18.5203 20.0735L18.615 20.0645C19.2606 20.0072 20.6793 19.2721 21.0019 18.3753C21.2561 17.669 21.3232 16.8973 21.1541 16.6172C21.0382 16.4268 20.8386 16.3309 20.5859 16.2096Z" fill="white"/>
<path d="M14.4695 1C7.30086 1 1.46869 6.78832 1.46869 13.9031C1.46869 16.2043 2.08453 18.4568 3.25116 20.4283L1.0182 27.015C0.976604 27.1379 1.00754 27.2736 1.09838 27.3661C1.16395 27.4331 1.2529 27.4691 1.34373 27.4691C1.37854 27.4691 1.4136 27.4639 1.4478 27.453L8.31603 25.2705C10.1955 26.2746 12.3197 26.8048 14.4696 26.8048C21.6375 26.8048 27.4691 21.0171 27.4691 13.9031C27.4691 6.78832 21.6375 1 14.4695 1ZM14.4695 24.117C12.4466 24.117 10.4872 23.5328 8.80306 22.4277C8.7464 22.3905 8.68064 22.3714 8.61447 22.3714C8.57948 22.3714 8.54449 22.3767 8.51033 22.3876L5.06976 23.4812L6.18047 20.2045C6.21637 20.0984 6.19842 19.9814 6.13225 19.891C4.84973 18.1386 4.17171 16.0681 4.17171 13.9031C4.17171 8.27042 8.79124 3.68782 14.4694 3.68782C20.1469 3.68782 24.7659 8.27042 24.7659 13.9031C24.766 19.5351 20.1471 24.117 14.4695 24.117Z" fill="white"/>
</svg>
