<svg width="29" height="27" viewBox="0 0 29 27" fill="none" xmlns="http://www.w3.org/2000/svg">
<path d="M28.609 9.8584V17.2737C28.6089 17.5477 28.5308 17.816 28.3841 18.0467C28.2374 18.2775 28.0281 18.4612 27.781 18.5761L25.7266 19.5137L25.6697 19.5293C25.6392 19.5287 25.6103 19.516 25.589 19.4941C25.5677 19.4722 25.5558 19.4428 25.5558 19.4121V7.71479C25.5558 7.69974 25.5588 7.68484 25.5645 7.67094C25.5702 7.65703 25.5786 7.6444 25.5892 7.63376C25.5998 7.62312 25.6123 7.61467 25.6261 7.60891C25.6399 7.60316 25.6547 7.60019 25.6697 7.60019L27.781 8.55869C28.0281 8.67356 28.2374 8.85723 28.3841 9.08801C28.5308 9.31878 28.6089 9.58701 28.609 9.861V9.8584ZM2.92377 7.61061H2.88496L0.830558 8.55869C0.582773 8.67292 0.372782 8.85637 0.225548 9.08723C0.078314 9.31809 2.92342e-05 9.58666 0 9.861L0 17.2737C2.92342e-05 17.5481 0.078314 17.8167 0.225548 18.0475C0.372782 18.2784 0.582773 18.4618 0.830558 18.5761L2.90048 19.5215C2.91582 19.5318 2.93383 19.5372 2.95223 19.5372C2.98168 19.5337 3.00905 19.5202 3.02977 19.4988C3.0505 19.4775 3.06331 19.4497 3.06608 19.42V7.71479C3.06608 7.65228 3.02209 7.61061 2.93671 7.61061H2.92377ZM9.0818 0.5C9.03468 0.500479 8.98809 0.510211 8.94467 0.528651L7.16712 1.28139C6.93694 1.3796 6.74058 1.54386 6.60254 1.75369C6.4645 1.96351 6.39089 2.20961 6.3909 2.46128V24.6735C6.39089 24.9251 6.4645 25.1712 6.60254 25.3811C6.74058 25.5909 6.93694 25.7551 7.16712 25.8534L8.94467 26.6035C8.99917 26.6268 9.05858 26.6361 9.11755 26.6306C9.17651 26.6251 9.23319 26.6049 9.28246 26.5718C9.33174 26.5387 9.37207 26.4938 9.39983 26.4412C9.42758 26.3885 9.44188 26.3297 9.44145 26.2701V0.862042C9.44145 0.766023 9.40356 0.673936 9.33611 0.60604C9.26867 0.538144 9.17719 0.5 9.0818 0.5ZM12.7792 23.1914H15.8324V15.0103H12.7792V23.1914ZM21.4419 1.28139L19.6643 0.528651C19.6207 0.510752 19.5742 0.501042 19.5272 0.5C19.4318 0.5 19.3403 0.538144 19.2729 0.60604C19.2054 0.673936 19.1675 0.766023 19.1675 0.862042V26.2701C19.1675 26.3661 19.2054 26.4582 19.2729 26.5261C19.3403 26.594 19.4318 26.6321 19.5272 26.6321C19.5751 26.6317 19.6226 26.6219 19.6669 26.6035L21.4419 25.8534C21.6722 25.7554 21.8688 25.5912 22.0069 25.3813C22.1449 25.1715 22.2184 24.9252 22.2181 24.6735V2.45867C22.2184 2.20693 22.1449 1.96069 22.0069 1.7508C21.8688 1.54091 21.6722 1.37671 21.4419 1.27878V1.28139ZM12.7792 12.1218H15.8324V3.9407H12.7792V12.1218Z" fill="white"/>
</svg>
