<svg width="117" height="30" viewBox="0 0 117 30" fill="none" xmlns="http://www.w3.org/2000/svg">
<g clip-path="url(#clip0)">
<path d="M28.609 9.3584V16.7737C28.6089 17.0477 28.5308 17.316 28.3841 17.5467C28.2374 17.7775 28.0281 17.9612 27.781 18.0761L25.7266 19.0137L25.6697 19.0293C25.6392 19.0287 25.6103 19.016 25.589 18.9941C25.5677 18.9722 25.5558 18.9428 25.5558 18.9121V7.21479C25.5558 7.19974 25.5588 7.18484 25.5645 7.17094C25.5702 7.15703 25.5786 7.1444 25.5892 7.13376C25.5997 7.12312 25.6123 7.11467 25.6261 7.10892C25.6399 7.10316 25.6547 7.10019 25.6697 7.10019L27.781 8.05869C28.0281 8.17356 28.2374 8.35723 28.3841 8.58801C28.5308 8.81878 28.6089 9.08701 28.609 9.361V9.3584ZM2.92377 7.11061H2.88496L0.830558 8.05869C0.582773 8.17292 0.372782 8.35637 0.225548 8.58723C0.078314 8.81809 2.92342e-05 9.08666 0 9.361L0 16.7737C2.92342e-05 17.0481 0.078314 17.3167 0.225548 17.5475C0.372782 17.7784 0.582773 17.9618 0.830558 18.0761L2.90048 19.0215C2.91582 19.0318 2.93383 19.0372 2.95223 19.0372C2.98168 19.0337 3.00905 19.0202 3.02977 18.9989C3.0505 18.9775 3.06331 18.9497 3.06608 18.92V7.21479C3.06608 7.15228 3.02209 7.11061 2.93671 7.11061H2.92377ZM9.0818 0C9.03468 0.000479044 8.98809 0.0102112 8.94467 0.0286508L7.16712 0.781386C6.93694 0.879597 6.74058 1.04386 6.60254 1.25369C6.4645 1.46351 6.39089 1.70961 6.3909 1.96128V24.1735C6.39089 24.4251 6.4645 24.6712 6.60254 24.8811C6.74058 25.0909 6.93694 25.2551 7.16712 25.3534L8.94467 26.1035C8.99917 26.1268 9.05858 26.1361 9.11755 26.1306C9.17651 26.1251 9.23319 26.1049 9.28246 26.0718C9.33174 26.0387 9.37207 25.9938 9.39983 25.9412C9.42758 25.8885 9.44189 25.8297 9.44145 25.7701V0.362042C9.44145 0.266023 9.40356 0.173936 9.33611 0.10604C9.26867 0.0381436 9.17719 0 9.0818 0V0ZM12.7792 22.6914H15.8324V14.5103H12.7792V22.6914ZM21.4419 0.781386L19.6643 0.0286508C19.6207 0.0107523 19.5742 0.00104179 19.5272 0C19.4318 0 19.3403 0.0381436 19.2729 0.10604C19.2054 0.173936 19.1675 0.266023 19.1675 0.362042V25.7701C19.1675 25.8661 19.2054 25.9582 19.2729 26.0261C19.3403 26.094 19.4318 26.1321 19.5272 26.1321C19.5751 26.1317 19.6226 26.1219 19.6669 26.1035L21.4419 25.3534C21.6722 25.2554 21.8688 25.0912 22.0069 24.8813C22.1449 24.6715 22.2184 24.4252 22.2181 24.1735V1.95867C22.2184 1.70693 22.1449 1.46069 22.0069 1.2508C21.8688 1.04091 21.6722 0.876709 21.4419 0.778781V0.781386ZM12.7792 11.6218H15.8324V3.4407H12.7792V11.6218ZM49.065 13.3044V22.8191C49.0653 22.9605 49.0119 23.0967 48.9157 23.1999C48.8195 23.303 48.6878 23.3652 48.5475 23.3739H45.898C45.7578 23.3652 45.6261 23.303 45.5299 23.1999C45.4337 23.0967 45.3803 22.9605 45.3806 22.8191V13.3044C45.3806 10.7284 44.9096 10.1007 42.9743 10.1007C42.004 10.1007 40.8422 10.4419 39.6106 11.0905L39.5822 22.8113C39.5831 22.9529 39.5299 23.0895 39.4335 23.1927C39.3372 23.296 39.2052 23.358 39.0647 23.366H36.4178C36.2775 23.3574 36.1458 23.2952 36.0496 23.192C35.9535 23.0889 35.9 22.9527 35.9003 22.8113V2.00295C35.9003 1.86479 35.9548 1.7323 36.0519 1.6346C36.1489 1.53691 36.2805 1.48203 36.4178 1.48203H39.0621C39.1993 1.48203 39.331 1.53691 39.428 1.6346C39.5251 1.7323 39.5796 1.86479 39.5796 2.00295V8.07432L39.6598 8.02483C40.8992 7.2721 42.1463 6.96215 43.9704 6.96215C47.3961 6.96215 49.0624 9.04584 49.0624 13.3018L49.065 13.3044ZM65.3062 7.38409H62.6644C62.5242 7.39273 62.3925 7.45497 62.2963 7.55809C62.2001 7.66121 62.1467 7.79742 62.147 7.93888L62.1185 19.6597C60.7808 20.3759 59.9425 20.6494 58.7549 20.6494C56.8195 20.6494 56.3486 20.0217 56.3486 17.4431V7.94148C56.3488 7.80003 56.2954 7.66382 56.1992 7.56069C56.103 7.45757 55.9714 7.39533 55.8311 7.3867H53.1842C53.0439 7.39533 52.9122 7.45757 52.816 7.56069C52.7199 7.66382 52.6664 7.80003 52.6667 7.94148V17.4509C52.6667 21.7173 54.333 23.7906 57.7587 23.7906C59.5337 23.7906 60.83 23.5093 62.0693 22.7487L62.147 22.6993V29.4713C62.146 29.5496 62.1632 29.6271 62.1973 29.6975C62.2313 29.768 62.2812 29.8294 62.3431 29.877C62.4049 29.9246 62.4769 29.9569 62.5534 29.9715C62.6298 29.9861 62.7086 29.9825 62.7835 29.9609L65.3139 29.1795C65.4499 29.1537 65.5739 29.0841 65.6672 28.9812C65.7605 28.8784 65.8181 28.7478 65.8314 28.6091V7.94148C65.8317 7.80003 65.7783 7.66382 65.6821 7.56069C65.5859 7.45757 65.4542 7.39533 65.3139 7.3867L65.3062 7.38409ZM83.017 14.1717V16.4091C83.017 21.0557 80.5978 23.6161 76.2044 23.6161C74.2609 23.597 72.3266 23.3452 70.4422 22.866C69.8057 22.6993 69.7048 22.5456 69.7048 22.1367V2.00295C69.7048 1.86479 69.7593 1.7323 69.8563 1.6346C69.9534 1.53691 70.085 1.48203 70.2223 1.48203H72.864C73.0012 1.48203 73.1329 1.53691 73.2299 1.6346C73.327 1.7323 73.3815 1.86479 73.3815 2.00295V7.17573H73.441C74.3535 7.04954 75.273 6.98168 76.194 6.97257C80.5926 6.97257 83.0066 9.53291 83.0066 14.1795L83.017 14.1717ZM79.3196 14.1795C79.3196 12.2287 78.9625 9.99132 76.194 9.99132C75.2689 10.0048 74.3453 10.0726 73.4281 10.1945L73.3815 20.3525C74.3066 20.543 75.2498 20.6303 76.194 20.613C78.9625 20.613 79.3196 18.3756 79.3196 16.4247V14.1795ZM93.0536 6.97257C90.6292 6.97257 89.1052 7.19135 87.2371 7.80865C86.761 7.97013 86.4971 8.25925 86.4971 8.6265V22.8191C86.4968 22.9605 86.5502 23.0967 86.6464 23.1999C86.7426 23.303 86.8743 23.3652 87.0145 23.3739H89.6847C89.7539 23.3712 89.8218 23.3547 89.8844 23.3252C89.9471 23.2957 90.0032 23.2538 90.0495 23.2021C90.0959 23.1504 90.1314 23.0898 90.1541 23.024C90.1767 22.9582 90.1861 22.8885 90.1815 22.8191L90.2229 10.2752C91.1571 10.1248 92.1024 10.056 93.0484 10.0695C93.734 10.0695 93.8246 9.84546 93.8246 9.60323V7.40493C93.8246 7.11061 93.5659 6.96475 93.0484 6.96475L93.0536 6.97257ZM99.8352 1.30231H97.0485C96.9104 1.30591 96.7787 1.36135 96.6791 1.45773C96.5795 1.55411 96.5193 1.68447 96.5103 1.82323V4.36795C96.5189 4.50914 96.5807 4.6417 96.6832 4.73853C96.7856 4.83535 96.9209 4.88913 97.0615 4.88887H99.8481C99.9853 4.88887 100.117 4.83399 100.214 4.73629C100.311 4.6386 100.366 4.5061 100.366 4.36795V1.82323C100.366 1.68508 100.311 1.55258 100.214 1.45488C100.117 1.35719 99.9853 1.30231 99.8481 1.30231H99.8352ZM117.013 2.00295V22.1393C117.013 22.5482 116.909 22.7019 116.276 22.8686C114.391 23.3476 112.457 23.5995 110.513 23.6187C106.115 23.6187 103.701 21.0583 103.701 16.4117V14.1717C103.701 9.52509 106.12 6.96475 110.513 6.96475C111.434 6.97379 112.352 7.04165 113.264 7.16791H113.323V2.00295C113.323 1.86479 113.378 1.7323 113.475 1.6346C113.572 1.53691 113.704 1.48203 113.841 1.48203H116.485C116.622 1.48203 116.754 1.53691 116.851 1.6346C116.948 1.7323 117.003 1.86479 117.003 2.00295H117.013ZM113.31 10.2388C112.382 10.0756 111.443 9.98846 110.5 9.9783C107.729 9.9783 107.375 12.2157 107.375 14.1665V16.4091C107.377 18.3495 107.729 20.5765 110.5 20.5765C111.427 20.5849 112.353 20.5169 113.269 20.3733L113.31 10.2388ZM99.7498 7.16791H97.1054C96.9682 7.16791 96.8366 7.22279 96.7395 7.32049C96.6425 7.41818 96.588 7.55068 96.588 7.68884V22.8191C96.5871 22.9607 96.6403 23.0973 96.7366 23.2005C96.8329 23.3038 96.965 23.3658 97.1054 23.3739H99.7498C99.89 23.3652 100.022 23.303 100.118 23.1999C100.214 23.0967 100.268 22.9605 100.267 22.8191V7.69404C100.267 7.55589 100.213 7.42339 100.116 7.3257C100.019 7.228 99.887 7.17312 99.7498 7.17312" fill="white"/>
</g>
<defs>
<clipPath id="clip0">
<rect width="117" height="30" fill="white"/>
</clipPath>
</defs>
</svg>
