<svg width="32" height="32" viewBox="0 0 32 32" fill="none" xmlns="http://www.w3.org/2000/svg">
<path d="M16 0.000830291C11.8014 -0.0424306 7.75764 1.60638 4.75743 4.5849C1.75722 7.56343 0.0460512 11.6279 0 15.8852C0.016178 19.2496 1.08355 22.5223 3.04882 25.2331C5.01408 27.9439 7.77611 29.9535 10.9382 30.9731C11.7382 31.1206 12.0291 30.6338 12.0291 30.2061V27.5071C7.57818 28.4658 6.63273 25.3833 6.63273 25.3833C6.33643 24.4157 5.70652 23.5885 4.85818 23.053C3.40364 22.0796 4.97455 22.0944 4.97455 22.0944C5.47731 22.1625 5.95833 22.3452 6.38154 22.6287C6.80475 22.9123 7.15915 23.2893 7.41818 23.7315C7.86957 24.5251 8.61023 25.1074 9.48074 25.3528C10.3513 25.5983 11.282 25.4875 12.0727 25.0441C12.154 24.2364 12.5148 23.484 13.0909 22.9203C9.54182 22.5221 5.81818 21.1652 5.81818 15.074C5.78644 13.4851 6.36544 11.946 7.43273 10.7821C6.94666 9.41797 7.00405 7.91543 7.59273 6.59349C7.59273 6.59349 8.94546 6.16578 11.9564 8.21585C14.5773 7.50767 17.3354 7.50767 19.9564 8.21585C23.0109 6.16578 24.32 6.59349 24.32 6.59349C24.9087 7.91543 24.9661 9.41797 24.48 10.7821C25.5721 11.9246 26.1825 13.4534 26.1818 15.0445C26.1818 21.1504 22.4291 22.4926 18.9091 22.8908C19.2945 23.2702 19.5922 23.7315 19.7809 24.2416C19.9695 24.7516 20.0443 25.2977 20 25.8405V30.1914C20 30.7076 20.2909 31.1206 21.0909 30.9583C24.244 29.9324 26.9967 27.9224 28.9559 25.2154C30.9151 22.5084 31.9805 19.2428 32 15.8852C31.9539 11.6279 30.2428 7.56343 27.2426 4.5849C24.2424 1.60638 20.1986 -0.0424306 16 0.000830291" fill="white"/>
</svg>
