<svg width="32" height="32" viewBox="0 0 32 32" fill="none" xmlns="http://www.w3.org/2000/svg">
<path d="M23.169 0H8.8307C3.9614 0 0 3.96162 0 8.83084V23.1692C0 28.0386 3.9614 32 8.8307 32H23.169C28.0386 32 32 28.0384 32 23.1692V8.83084C32.0002 3.96162 28.0386 0 23.169 0ZM29.161 23.1692C29.161 26.473 26.473 29.1608 23.1692 29.1608H8.8307C5.527 29.161 2.8392 26.473 2.8392 23.1692V8.83084C2.8392 5.52716 5.527 2.8392 8.8307 2.8392H23.169C26.4728 2.8392 29.1608 5.52716 29.1608 8.83084V23.1692H29.161Z" fill="white"/>
<path d="M16 7.75479C11.4533 7.75479 7.7544 11.4537 7.7544 16.0004C7.7544 20.5469 11.4533 24.2456 16 24.2456C20.5467 24.2456 24.2456 20.5469 24.2456 16.0004C24.2456 11.4537 20.5467 7.75479 16 7.75479ZM16 21.4062C13.019 21.4062 10.5936 18.9812 10.5936 16.0002C10.5936 13.019 13.0189 10.5938 16 10.5938C18.9812 10.5938 21.4064 13.019 21.4064 16.0002C21.4064 18.9812 18.981 21.4062 16 21.4062Z" fill="white"/>
<path d="M24.5916 5.34735C24.0446 5.34735 23.5072 5.56881 23.1209 5.95683C22.7327 6.34296 22.5095 6.88052 22.5095 7.42943C22.5095 7.97663 22.7329 8.514 23.1209 8.90202C23.507 9.28815 24.0446 9.5115 24.5916 9.5115C25.1405 9.5115 25.6762 9.28815 26.0642 8.90202C26.4522 8.514 26.6737 7.97645 26.6737 7.42943C26.6737 6.88052 26.4522 6.34296 26.0642 5.95683C25.6781 5.56881 25.1405 5.34735 24.5916 5.34735Z" fill="white"/>
</svg>
