<svg width="32" height="32" viewBox="0 0 32 32" fill="none" xmlns="http://www.w3.org/2000/svg">
<path d="M25.82 12.6013C26.2853 12.6013 26.66 12.9878 26.66 13.4571C26.66 13.925 26.2853 14.3115 25.82 14.3115H23.48V15.8374H25.82C26.2853 15.8374 26.66 16.2212 26.66 16.6919C26.66 17.1584 26.2853 17.5449 25.82 17.5449H22.6386C22.1787 17.5449 21.8027 17.1584 21.8027 16.6919V10.221C21.8027 9.75309 22.1787 9.36652 22.6427 9.36652H25.824C26.2854 9.36652 26.66 9.75309 26.66 10.221C26.66 10.6943 26.2853 11.0754 25.82 11.0754H23.48V12.6013H25.82ZM20.68 16.6919C20.68 17.058 20.448 17.3835 20.104 17.5002C20.0187 17.5287 19.9267 17.5422 19.8386 17.5422C19.5573 17.5422 19.3173 17.4202 19.1587 17.2032L15.9013 12.7044V16.6919C15.9013 17.1584 15.5293 17.5449 15.06 17.5449C14.5987 17.5449 14.2254 17.1584 14.2254 16.6919V10.221C14.2254 9.8548 14.456 9.52929 14.7986 9.41399C14.8786 9.3828 14.98 9.36924 15.0574 9.36924C15.3173 9.36924 15.5573 9.5103 15.7173 9.71375L19 14.2302V10.221C19 9.75309 19.376 9.36652 19.84 9.36652C20.3 9.36652 20.68 9.75309 20.68 10.221V16.6919ZM13.0254 16.6919C13.0254 17.1584 12.6493 17.5449 12.184 17.5449C11.724 17.5449 11.348 17.1584 11.348 16.6919V10.221C11.348 9.75309 11.724 9.36652 12.188 9.36652C12.6493 9.36652 13.0254 9.75309 13.0254 10.221V16.6919ZM9.73731 17.5449H6.55602C6.096 17.5449 5.71598 17.1584 5.71598 16.6919V10.221C5.71598 9.75309 6.096 9.36652 6.55602 9.36652C7.02002 9.36652 7.39598 9.75309 7.39598 10.221V15.8374H9.73731C10.2013 15.8374 10.576 16.2212 10.576 16.6919C10.576 17.1584 10.2 17.5449 9.73731 17.5449ZM32 13.213C32 5.92833 24.82 0 16 0C7.18002 0 0 5.92833 0 13.213C0 19.7381 5.69328 25.2052 13.38 26.2442C13.9013 26.3554 14.6107 26.5941 14.7907 27.0444C14.9507 27.4526 14.896 28.0833 14.8413 28.5092L14.6226 29.8926C14.5627 30.3009 14.3026 31.5011 16.0213 30.7674C17.7426 30.0364 25.2427 25.2364 28.6027 21.3073C30.9013 18.7452 32 16.1209 32 13.213Z" fill="white"/>
</svg>
