<svg width="32" height="32" viewBox="0 0 32 32" fill="none" xmlns="http://www.w3.org/2000/svg">
<path d="M29.1053 0H2.8947C1.296 0 0 1.296 0 2.89466V29.1053C0 30.704 1.296 32 2.8947 32H29.1053C30.704 32 32 30.704 32 29.1053V2.89466C32 1.296 30.704 0 29.1053 0ZM9.9022 27.6309C9.9022 28.0962 9.525 28.4733 9.0598 28.4733H5.4739C5.0087 28.4733 4.6315 28.0962 4.6315 27.6309V12.5992C4.6315 12.1339 5.0087 11.7568 5.4739 11.7568H9.0598C9.525 11.7568 9.9022 12.1339 9.9022 12.5992V27.6309ZM7.2668 10.3399C5.3855 10.3399 3.8603 8.81466 3.8603 6.93328C3.8603 5.0519 5.3855 3.5267 7.2668 3.5267C9.1482 3.5267 10.6734 5.0519 10.6734 6.93328C10.6734 8.81466 9.1483 10.3399 7.2668 10.3399ZM28.6417 27.6988C28.6417 28.1265 28.2949 28.4733 27.8671 28.4733H24.0193C23.5915 28.4733 23.2447 28.1265 23.2447 27.6988V20.648C23.2447 19.5962 23.5533 16.039 20.496 16.039C18.1246 16.039 17.6436 18.4738 17.547 19.5665V27.6988C17.547 28.1265 17.2003 28.4733 16.7724 28.4733H13.0509C12.6232 28.4733 12.2764 28.1265 12.2764 27.6988V12.5314C12.2764 12.1036 12.6232 11.7568 13.0509 11.7568H16.7724C17.2002 11.7568 17.547 12.1036 17.547 12.5314V13.8428C18.4263 12.5231 19.7331 11.5046 22.5155 11.5046C28.6769 11.5046 28.6417 17.2609 28.6417 20.4237V27.6988Z" fill="white"/>
</svg>
