<svg width="32" height="32" viewBox="0 0 32 32" fill="none" xmlns="http://www.w3.org/2000/svg">
<g clip-path="url(#clip0)">
<path d="M23.6785 18.3876C23.6161 18.3577 21.2832 17.2089 20.8687 17.0597C20.6994 16.999 20.5181 16.9396 20.3253 16.9396C20.0103 16.9396 19.7457 17.0966 19.5395 17.405C19.3065 17.7514 18.6011 18.576 18.3831 18.8223C18.3546 18.8549 18.3158 18.8937 18.2925 18.8937C18.2716 18.8937 17.9106 18.745 17.8013 18.6976C15.2987 17.6105 13.3992 14.9964 13.1387 14.5555C13.1015 14.4922 13.1 14.4634 13.0997 14.4634C13.1088 14.4298 13.193 14.3455 13.2364 14.3019C13.3634 14.1762 13.5011 14.0105 13.6343 13.8502C13.6974 13.7742 13.7605 13.6982 13.8226 13.6265C14.0158 13.4017 14.1018 13.2271 14.2016 13.0249L14.2538 12.9199C14.4974 12.4361 14.2894 12.0277 14.2221 11.8959C14.167 11.7856 13.1819 9.40821 13.0772 9.15844C12.8254 8.55574 12.4926 8.27512 12.0301 8.27512C11.9872 8.27512 12.0301 8.27512 11.8502 8.2827C11.6311 8.29195 10.4378 8.44904 9.9102 8.78161C9.3508 9.13434 8.4043 10.2587 8.4043 12.2361C8.4043 14.0157 9.5336 15.696 10.0185 16.3351C10.0306 16.3512 10.0527 16.3839 10.0848 16.4309C11.9417 19.1428 14.2566 21.1525 16.6033 22.09C18.8626 22.9924 19.9324 23.0967 20.5406 23.0967C20.5407 23.0967 20.5407 23.0967 20.5407 23.0967C20.7963 23.0967 21.0008 23.0767 21.1813 23.0589L21.2958 23.048C22.0763 22.9788 23.7914 22.0901 24.1815 21.0059C24.4888 20.152 24.5699 19.219 24.3654 18.8804C24.2254 18.6502 23.984 18.5343 23.6785 18.3876Z" fill="white"/>
<path d="M16.2843 0C7.6177 0 0.566869 6.99782 0.566869 15.5993C0.566869 18.3813 1.31139 21.1045 2.7218 23.4879L0.0222494 31.451C-0.0280406 31.5995 0.00935891 31.7636 0.119179 31.8754C0.198449 31.9564 0.305989 32 0.415799 32C0.457879 32 0.500269 31.9937 0.541619 31.9805L8.845 29.3419C11.1172 30.5559 13.6853 31.1968 16.2844 31.1968C24.9501 31.1969 32.0002 24.1998 32.0002 15.5993C32.0002 6.99782 24.9501 0 16.2843 0ZM16.2843 27.9474C13.8387 27.9474 11.4699 27.2412 9.4338 25.9051C9.3653 25.8602 9.2858 25.8371 9.2058 25.8371C9.1635 25.8371 9.1212 25.8435 9.0799 25.8566L4.9204 27.1788L6.2632 23.2174C6.3066 23.0891 6.2849 22.9477 6.2049 22.8384C4.6544 20.7198 3.8347 18.2166 3.8347 15.5993C3.8347 8.78961 9.4195 3.24945 16.2842 3.24945C23.148 3.24945 28.7322 8.78961 28.7322 15.5993C28.7323 22.4081 23.1482 27.9474 16.2843 27.9474Z" fill="white"/>
</g>
<defs>
<clipPath id="clip0">
<rect width="32" height="32" fill="white"/>
</clipPath>
</defs>
</svg>
