<svg width="1350" height="707" viewBox="0 0 1350 707" fill="none" xmlns="http://www.w3.org/2000/svg">
<g filter="url(#filter0_d)">
<path d="M1278.2 39.2766L1275.78 136.211L1254.8 138.723L1257.07 45.7821L1278.2 39.2766Z" fill="url(#paint0_linear)"/>
</g>
<g filter="url(#filter1_d)">
<path d="M1176.02 451.601L1178.51 276L1201.44 281V334L1270.51 351.5L1265.89 503.992L1176.02 451.601ZM1240.51 370.5L1200.51 358.5L1200.01 438.5L1238.01 458.5L1240.51 370.5Z" fill="url(#paint1_linear)"/>
</g>
<g filter="url(#filter2_d)">
<path d="M718.15 291.157V362.47H692V266H756.301V291.157H718.15Z" fill="url(#paint2_linear)"/>
</g>
<g filter="url(#filter3_d)">
<path d="M1222 438L1223.5 366L1200.5 359L1200 439L1238 459V446.5L1222 438Z" fill="url(#paint3_linear)"/>
<path d="M1222.5 438L1200 439L1238.5 459V446.5L1222.5 438Z" fill="#FF550D"/>
<path d="M1201.46 281.695L1178.54 276.506L1203.96 277.195L1226.46 281.695V334.683L1301.41 351.81L1295.46 505.113H1266.02L1270.46 351.81L1201.46 334.683V281.695Z" fill="#FE7D0F"/>
<path d="M1226 334H1201L1270 351.5H1301L1226 334Z" fill="#FF4B0C"/>
</g>
<g filter="url(#filter4_d)">
<path d="M1293.5 44L1278.5 40L1275.5 137L1290.5 138.5L1293.5 44Z" fill="url(#paint4_linear)"/>
<path d="M1275.5 136.5L1255 139L1269 140.5L1290.5 138.5L1275.5 136.5Z" fill="#D24401"/>
</g>
<defs>
<filter id="filter0_d" x="1222.8" y="7.27661" width="87.3999" height="163.446" filterUnits="userSpaceOnUse" color-interpolation-filters="sRGB">
<feFlood flood-opacity="0" result="BackgroundImageFix"/>
<feColorMatrix in="SourceAlpha" type="matrix" values="0 0 0 0 0 0 0 0 0 0 0 0 0 0 0 0 0 0 127 0"/>
<feOffset/>
<feGaussianBlur stdDeviation="16"/>
<feColorMatrix type="matrix" values="0 0 0 0 0.992157 0 0 0 0 0.639216 0 0 0 0 0.0627451 0 0 0 0.61 0"/>
<feBlend mode="normal" in2="BackgroundImageFix" result="effect1_dropShadow"/>
<feBlend mode="normal" in="SourceGraphic" in2="effect1_dropShadow" result="shape"/>
</filter>
<filter id="filter1_d" x="1148.02" y="246" width="158.49" height="291.992" filterUnits="userSpaceOnUse" color-interpolation-filters="sRGB">
<feFlood flood-opacity="0" result="BackgroundImageFix"/>
<feColorMatrix in="SourceAlpha" type="matrix" values="0 0 0 0 0 0 0 0 0 0 0 0 0 0 0 0 0 0 127 0"/>
<feOffset dx="4" dy="2"/>
<feGaussianBlur stdDeviation="16"/>
<feColorMatrix type="matrix" values="0 0 0 0 0.992157 0 0 0 0 0.635294 0 0 0 0 0.0627451 0 0 0 0.65 0"/>
<feBlend mode="normal" in2="BackgroundImageFix" result="effect1_dropShadow"/>
<feBlend mode="normal" in="SourceGraphic" in2="effect1_dropShadow" result="shape"/>
</filter>
<filter id="filter2_d" x="660" y="234" width="128.301" height="160.47" filterUnits="userSpaceOnUse" color-interpolation-filters="sRGB">
<feFlood flood-opacity="0" result="BackgroundImageFix"/>
<feColorMatrix in="SourceAlpha" type="matrix" values="0 0 0 0 0 0 0 0 0 0 0 0 0 0 0 0 0 0 127 0"/>
<feOffset/>
<feGaussianBlur stdDeviation="16"/>
<feColorMatrix type="matrix" values="0 0 0 0 0.992157 0 0 0 0 0.623529 0 0 0 0 0.0627451 0 0 0 1 0"/>
<feBlend mode="normal" in2="BackgroundImageFix" result="effect1_dropShadow"/>
<feBlend mode="normal" in="SourceGraphic" in2="effect1_dropShadow" result="shape"/>
</filter>
<filter id="filter3_d" x="1136.54" y="234.506" width="206.87" height="312.607" filterUnits="userSpaceOnUse" color-interpolation-filters="sRGB">
<feFlood flood-opacity="0" result="BackgroundImageFix"/>
<feColorMatrix in="SourceAlpha" type="matrix" values="0 0 0 0 0 0 0 0 0 0 0 0 0 0 0 0 0 0 127 0"/>
<feOffset/>
<feGaussianBlur stdDeviation="21"/>
<feColorMatrix type="matrix" values="0 0 0 0 0.992157 0 0 0 0 0.619608 0 0 0 0 0.0627451 0 0 0 0.7 0"/>
<feBlend mode="normal" in2="BackgroundImageFix" result="effect1_dropShadow"/>
<feBlend mode="normal" in="SourceGraphic" in2="effect1_dropShadow" result="shape"/>
</filter>
<filter id="filter4_d" x="1223" y="8" width="102.5" height="164.5" filterUnits="userSpaceOnUse" color-interpolation-filters="sRGB">
<feFlood flood-opacity="0" result="BackgroundImageFix"/>
<feColorMatrix in="SourceAlpha" type="matrix" values="0 0 0 0 0 0 0 0 0 0 0 0 0 0 0 0 0 0 127 0"/>
<feOffset/>
<feGaussianBlur stdDeviation="16"/>
<feColorMatrix type="matrix" values="0 0 0 0 0.992157 0 0 0 0 0.631373 0 0 0 0 0.0627451 0 0 0 0.7 0"/>
<feBlend mode="normal" in2="BackgroundImageFix" result="effect1_dropShadow"/>
<feBlend mode="normal" in="SourceGraphic" in2="effect1_dropShadow" result="shape"/>
</filter>
<linearGradient id="paint0_linear" x1="1267.72" y1="39.0156" x2="1265.23" y2="138.982" gradientUnits="userSpaceOnUse">
<stop stop-color="#F2CD94"/>
<stop offset="1" stop-color="#FE7713"/>
</linearGradient>
<linearGradient id="paint1_linear" x1="1227.46" y1="278.304" x2="1216.94" y2="501.688" gradientUnits="userSpaceOnUse">
<stop stop-color="#FDA210"/>
<stop offset="1" stop-color="#FF460C"/>
</linearGradient>
<linearGradient id="paint2_linear" x1="891.975" y1="223.47" x2="891.975" y2="362.47" gradientUnits="userSpaceOnUse">
<stop stop-color="#FCB90E"/>
<stop offset="1" stop-color="#FE7213"/>
</linearGradient>
<linearGradient id="paint3_linear" x1="1219" y1="359" x2="1219" y2="439.5" gradientUnits="userSpaceOnUse">
<stop stop-color="#FF570D"/>
<stop offset="1" stop-color="#FE700E"/>
</linearGradient>
<linearGradient id="paint4_linear" x1="1284.5" y1="40" x2="1284.5" y2="138.5" gradientUnits="userSpaceOnUse">
<stop stop-color="#F5BC7B"/>
<stop offset="1" stop-color="#FF5B00"/>
</linearGradient>
</defs>
</svg>
